<?xml version="1.0" encoding="UTF-8"?>
<!--
  Signal K plugin icon for signalk-openrouter-companion.

  Family identity (shared across @NearlCrews Signal K plugins): rounded
  square with a deep-ocean gradient and three stacked stylized wave lines.
  Per-project differentiation: a bottom-right circle badge in a
  project-specific colour with a 2-3 shape glyph. This badge is the only
  region that varies between sibling plugins.

  This variant's badge: green (#43A047) with a dark chat-bubble glyph,
  signaling an LLM-routing conversational companion.
-->
<svg xmlns="http://www.w3.org/2000/svg" viewBox="0 0 512 512" width="512" height="512" role="img" aria-label="OpenRouter Companion plugin icon">
  <defs>
    <linearGradient id="bg" x1="0" y1="0" x2="0" y2="1">
      <stop offset="0" stop-color="#0E4D6B"/>
      <stop offset="1" stop-color="#1A8DAB"/>
    </linearGradient>
  </defs>

  <!-- Rounded-square background, deep-ocean gradient -->
  <rect width="512" height="512" rx="96" ry="96" fill="url(#bg)"/>

  <!-- Family motif: three stacked wave lines centered in the canvas -->
  <g fill="none" stroke="#FFFFFF" stroke-width="20" stroke-linecap="round" stroke-linejoin="round" opacity="0.94">
    <path d="M 80,176 q 44,-36 88,0 t 88,0 t 88,0 t 88,0"/>
    <path d="M 80,256 q 44,-36 88,0 t 88,0 t 88,0 t 88,0"/>
    <path d="M 80,336 q 44,-36 88,0 t 88,0 t 88,0 t 88,0"/>
  </g>

  <!-- Project badge: bottom-right circle (green for chat/AI) -->
  <circle cx="388" cy="388" r="84" fill="#43A047" stroke="#FFFFFF" stroke-width="8"/>

  <!-- Badge glyph: rounded chat bubble with three dots and a tail -->
  <g fill="#1B3A4B">
    <rect x="346" y="354" width="84" height="56" rx="14"/>
    <path d="M 358,408 L 348,428 L 376,408 Z"/>
  </g>
  <g fill="#FFFFFF">
    <circle cx="370" cy="382" r="5"/>
    <circle cx="388" cy="382" r="5"/>
    <circle cx="406" cy="382" r="5"/>
  </g>
</svg>
